<svg width="72" height="72" viewBox="0 0 72 72" fill="none" xmlns="http://www.w3.org/2000/svg">
<g clip-path="url(#clip0_439_23)">
<g clip-path="url(#clip1_439_23)">
<g clip-path="url(#clip2_439_23)">
<g clip-path="url(#clip3_439_23)">
<g clip-path="url(#clip4_439_23)">
<path d="M70.8 28.8H50.4V25.2C50.4 24.816 50.2163 24.4551 49.9056 24.2292L37.2 14.9892V10.8H50.4C51.0627 10.8 51.6 10.2627 51.6 9.6V2.4C51.6 1.7373 51.0627 1.2 50.4 1.2H37.2C37.2 0.5373 36.6627 0 36 0C35.3373 0 34.8 0.5373 34.8 1.2V14.9892L22.0944 24.2292C21.7838 24.4551 21.6 24.816 21.6 25.2V28.8H1.2C0.5373 28.8 0 29.3373 0 30V70.8C0 71.4627 0.5373 72 1.2 72H70.8C71.4627 72 72 71.4627 72 70.8V30C72 29.3373 71.4627 28.8 70.8 28.8ZM37.2 3.6H49.2V8.4H37.2V3.6ZM21.6 69.6H2.4V31.2H21.6V69.6ZM40.8 69.6H31.2V57.6H40.8V69.6ZM48 69.6H43.2V56.4C43.2 55.7373 42.6627 55.2 42 55.2H30C29.3373 55.2 28.8 55.7373 28.8 56.4V69.6H24V25.8108L36 17.0832L48 25.8108V69.6ZM69.6 69.6H50.4V31.2H69.6V69.6Z" fill="#8D5CF6"/>
<path d="M10.8 34.7998H6V37.1998H10.8V34.7998Z" fill="#8D5CF6"/>
<path d="M18.0002 34.7998H13.2002V37.1998H18.0002V34.7998Z" fill="#8D5CF6"/>
<path d="M10.8 39.6001H6V42.0001H10.8V39.6001Z" fill="#8D5CF6"/>
<path d="M18.0002 39.6001H13.2002V42.0001H18.0002V39.6001Z" fill="#8D5CF6"/>
<path d="M10.8 44.3999H6V46.7999H10.8V44.3999Z" fill="#8D5CF6"/>
<path d="M18.0002 44.3999H13.2002V46.7999H18.0002V44.3999Z" fill="#8D5CF6"/>
<path d="M10.8 49.2002H6V51.6002H10.8V49.2002Z" fill="#8D5CF6"/>
<path d="M18.0002 49.2002H13.2002V51.6002H18.0002V49.2002Z" fill="#8D5CF6"/>
<path d="M10.8 54H6V56.4H10.8V54Z" fill="#8D5CF6"/>
<path d="M18.0002 54H13.2002V56.4H18.0002V54Z" fill="#8D5CF6"/>
<path d="M58.8 34.7998H54V37.1998H58.8V34.7998Z" fill="#8D5CF6"/>
<path d="M66.0002 34.7998H61.2002V37.1998H66.0002V34.7998Z" fill="#8D5CF6"/>
<path d="M58.8 39.6001H54V42.0001H58.8V39.6001Z" fill="#8D5CF6"/>
<path d="M66.0002 39.6001H61.2002V42.0001H66.0002V39.6001Z" fill="#8D5CF6"/>
<path d="M58.8 44.3999H54V46.7999H58.8V44.3999Z" fill="#8D5CF6"/>
<path d="M66.0002 44.3999H61.2002V46.7999H66.0002V44.3999Z" fill="#8D5CF6"/>
<path d="M58.8 49.2002H54V51.6002H58.8V49.2002Z" fill="#8D5CF6"/>
<path d="M66.0002 49.2002H61.2002V51.6002H66.0002V49.2002Z" fill="#8D5CF6"/>
<path d="M58.8 54H54V56.4H58.8V54Z" fill="#8D5CF6"/>
<path d="M66.0002 54H61.2002V56.4H66.0002V54Z" fill="#8D5CF6"/>
<path d="M27.5996 36.0001C27.6049 40.637 31.3627 44.3948 35.9996 44.4001C40.6388 44.4001 44.3996 40.6393 44.3996 36.0001C44.3996 31.3609 40.6388 27.6001 35.9996 27.6001C31.3604 27.6001 27.5996 31.3609 27.5996 36.0001ZM41.9996 36.0001C41.9996 39.3137 39.3133 42.0001 35.9996 42.0001C32.686 42.0001 29.9996 39.3137 29.9996 36.0001C30.0035 32.6881 32.6876 30.004 35.9996 30.0001C39.3133 30.0001 41.9996 32.6864 41.9996 36.0001Z" fill="#8D5CF6"/>
<path d="M34.8004 34.8002H32.4004V37.2002H37.2004V31.2002H34.8004V34.8002Z" fill="#8D5CF6"/>
</g>
</g>
</g>
</g>
</g>
<defs>
<clipPath id="clip0_439_23">
<rect width="72" height="72" fill="white"/>
</clipPath>
<clipPath id="clip1_439_23">
<rect width="72" height="72" fill="white"/>
</clipPath>
<clipPath id="clip2_439_23">
<rect width="72" height="72" fill="white"/>
</clipPath>
<clipPath id="clip3_439_23">
<rect width="72" height="72" fill="white"/>
</clipPath>
<clipPath id="clip4_439_23">
<rect width="72" height="72" fill="white"/>
</clipPath>
</defs>
</svg>
