<svg width="73" height="72" viewBox="0 0 73 72" fill="none" xmlns="http://www.w3.org/2000/svg">
<g clip-path="url(#clip0_439_56)">
<g clip-path="url(#clip1_439_56)">
<g clip-path="url(#clip2_439_56)">
<path d="M66.6717 37.7439C66.4548 36.614 65.4666 35.7969 64.3161 35.7963H61.9989L61.8285 34.7751C61.6585 33.7494 60.8504 32.948 59.8233 32.7867C59.5953 32.7507 59.3649 32.7267 59.1381 32.6955C59.531 30.8609 59.2046 28.9455 58.2261 27.3447C58.743 26.0036 58.6466 24.5034 57.962 23.2397C57.2775 21.9759 56.0737 21.0755 54.6681 20.7759C53.7694 15.9662 49.5852 12.4701 44.6925 12.4406C44.5725 12.4406 44.4657 12.4563 44.3517 12.4599C43.5699 11.2321 42.2809 10.4172 40.8365 10.2376C39.3921 10.0579 37.9428 10.5322 36.8841 11.5311C35.5503 10.6641 33.994 10.2019 32.4033 10.2003C29.8401 10.2107 27.4245 11.4004 25.8537 13.4259C24.1095 12.9172 22.2287 13.2295 20.7425 14.2745C19.2563 15.3195 18.326 16.9837 18.2145 18.7971C16.3825 19.5671 15.1904 21.3602 15.1893 23.3475C15.193 23.6919 15.2332 24.035 15.3093 24.3711C13.6891 26.8134 13.2658 29.8594 14.1585 32.6511C13.8369 32.6955 13.5081 32.7351 13.1985 32.7807C12.166 32.9364 11.3507 33.7382 11.1777 34.7679L11.0073 35.7927H8.68406C7.53548 35.7934 6.54847 36.6079 6.32966 37.7355L1.07486 64.7139C0.869646 65.7704 1.14793 66.8634 1.83344 67.6931C2.51895 68.5229 3.53976 69.0024 4.61606 69.0003H29.6409C30.6345 70.6395 33.6537 71.4003 36.5001 71.4003C39.3165 71.4003 42.3069 70.6575 43.3293 69.0003H68.3841C69.4601 69.0023 70.4807 68.523 71.1661 67.6935C71.8516 66.864 72.1301 65.7714 71.9253 64.7151L66.6717 37.7439ZM18.8181 25.5195C17.8437 24.9336 17.3787 23.7707 17.6806 22.6746C17.9824 21.5785 18.9772 20.8175 20.1141 20.8131C20.9097 20.8107 21.6585 21.1889 22.1289 21.8307C22.3844 22.1749 22.8041 22.3567 23.23 22.3076C23.6559 22.2584 24.0233 21.9858 24.1936 21.5924C24.364 21.1989 24.3116 20.7445 24.0561 20.4003C23.2412 19.3112 22.0064 18.6145 20.6529 18.4803C21.0106 16.7997 22.4926 15.5966 24.2109 15.5919C24.3573 15.5993 24.5031 15.6153 24.6477 15.6399C24.5511 15.8859 24.467 16.1366 24.3957 16.3911C24.2463 17.0263 24.6319 17.6644 25.2637 17.8276C25.8956 17.9908 26.5419 17.6191 26.7189 16.9911C26.8553 16.4636 27.065 15.9579 27.3417 15.4886C28.4061 13.7054 30.3265 12.6095 32.4033 12.6003C33.5335 12.6053 34.638 12.9388 35.5821 13.5603C35.4022 14.0656 35.3069 14.5971 35.3001 15.1335C35.3001 15.7962 35.8373 16.3335 36.5001 16.3335C37.1628 16.3335 37.7001 15.7962 37.7001 15.1335C37.7001 13.7394 38.8302 12.6092 40.2243 12.6092C41.6183 12.6092 42.7485 13.7394 42.7485 15.1335C42.7485 15.7962 43.2857 16.3335 43.9485 16.3335C44.6112 16.3335 45.1485 15.7962 45.1485 15.1335C45.1485 15.0411 45.1257 14.9535 45.1209 14.8611C48.5569 15.0731 51.4462 17.5155 52.2273 20.8682C51.6675 21.0312 51.1416 21.2934 50.6745 21.6423C50.3315 21.8995 50.1518 22.3201 50.2031 22.7458C50.2544 23.1714 50.5288 23.5374 50.9231 23.7058C51.3173 23.8742 51.7715 23.8195 52.1145 23.5623C53.0734 22.8523 54.398 22.9089 55.2929 23.6981C56.1877 24.4873 56.4094 25.7945 55.8249 26.8347C55.5636 27.2939 55.1667 27.6611 54.6885 27.8859C54.187 28.1287 53.9186 28.6847 54.0405 29.2284C54.1624 29.7721 54.6425 30.1604 55.1997 30.1659C55.3756 30.1661 55.5494 30.1272 55.7085 30.0519C56.0265 29.8977 56.327 29.7099 56.6049 29.4915C57.2252 31.2549 56.8361 33.2163 55.5897 34.6095L55.5609 34.6395C53.9975 36.333 51.5037 36.7907 49.4409 35.7627C49.2388 35.6559 49.0447 35.5348 48.8601 35.4003C49.7439 34.1611 49.866 32.5334 49.1769 31.1763C48.9839 30.7932 48.6013 30.5422 48.1731 30.5177C47.7449 30.4932 47.3362 30.6991 47.1009 31.0577C46.8656 31.4163 46.8395 31.8732 47.0325 32.2563C47.4271 33.0494 47.1809 34.0119 46.4541 34.5183C46.0272 34.8024 45.4999 34.8923 45.003 34.7656C44.5061 34.6388 44.0863 34.3074 43.8477 33.8535C43.6558 33.47 43.2739 33.218 42.8459 33.1924C42.4179 33.1668 42.0087 33.3715 41.7725 33.7294C41.5363 34.0873 41.509 34.544 41.7009 34.9275C42.4046 36.3481 43.8547 37.2453 45.4401 37.2411C45.9562 37.2376 46.4671 37.137 46.9461 36.9447C47.3747 37.3199 47.8469 37.6422 48.3525 37.9047C50.0627 38.7912 52.0515 38.975 53.8953 38.4171C52.7094 40.0363 50.9346 41.1245 48.9537 41.4471C48.3374 41.5474 47.901 42.1035 47.9502 42.726C47.9994 43.3484 48.5177 43.8292 49.1421 43.8315C49.2059 43.8314 49.2697 43.8266 49.3329 43.8171C50.0636 43.6906 50.7777 43.482 51.4617 43.1954C51.8313 43.849 52.1314 44.5396 52.3569 45.2559C52.3982 45.3809 52.4192 45.5118 52.4193 45.6435C52.419 46.1621 52.1092 46.6305 51.6321 46.8339C51.0801 47.0473 50.4534 46.8789 50.0829 46.4175C49.1535 45.3261 47.9366 44.5175 46.5705 44.0835C43.9773 43.2147 42.9765 42.4383 42.5517 41.5935C43.1743 41.5158 43.7895 41.3873 44.3913 41.2095C44.8011 41.0834 45.1126 40.7483 45.2084 40.3303C45.3041 39.9123 45.1697 39.475 44.8556 39.1831C44.5415 38.8912 44.0955 38.789 43.6857 38.9151C43.0123 39.1216 42.3173 39.2493 41.6145 39.2954C40.2605 39.4013 38.9002 39.196 37.6377 38.6955C37.1636 38.5106 36.6245 38.6448 36.2925 39.0303C34.5453 41.0372 31.555 41.3783 29.4008 39.8164C27.2465 38.2545 26.641 35.3064 28.0053 33.0219C28.2263 32.6529 28.2337 32.1941 28.0247 31.8183C27.8157 31.4424 27.4221 31.2066 26.9921 31.1997C26.5621 31.1928 26.1611 31.4157 25.9401 31.7847C25.6538 32.2719 25.4235 32.79 25.2537 33.3291C24.3087 33.2793 23.5636 32.5064 23.5485 31.5603V31.5303C23.5478 31.2136 23.4207 30.9103 23.1954 30.6879C22.97 30.4655 22.6651 30.3423 22.3485 30.3459C21.6829 30.3524 21.1471 30.8946 21.1485 31.5603C21.1538 33.6884 22.7587 35.4721 24.8745 35.7015C24.8788 36.1037 24.9153 36.505 24.9837 36.9015C22.3043 37.4812 19.5253 36.5181 17.7793 34.4047C16.0333 32.2913 15.6119 29.3805 16.6869 26.8587C16.9553 27.1303 17.255 27.3691 17.5797 27.5703C18.1465 27.9023 18.8751 27.7168 19.2141 27.1541C19.5531 26.5913 19.3766 25.8606 18.8181 25.5146V25.5195ZM13.5381 35.1591C14.0913 35.0775 14.6625 35.0055 15.2301 34.9311C17.4488 38.4766 21.6922 40.1982 25.7541 39.2007C26.8455 41.2721 28.8397 42.7166 31.1482 43.1078C33.4566 43.4991 35.8155 42.7923 37.5285 41.1963C38.344 41.4395 39.1839 41.5916 40.0329 41.6499C40.6125 43.8483 42.2877 45.1803 45.8073 46.3599C46.7561 46.6573 47.6025 47.2148 48.2505 47.9691C48.9708 48.8257 50.0305 49.3235 51.1497 49.3311C51.6391 49.3309 52.1236 49.2321 52.5741 49.0407C53.9343 48.4593 54.8167 47.1227 54.8169 45.6435C54.818 45.2577 54.7564 44.8743 54.6345 44.5083C54.3646 43.6604 54.0092 42.8422 53.5737 42.0663C55.6142 40.5993 57.0357 38.4254 57.5613 35.9679C57.8168 35.6642 58.048 35.3408 58.2525 35.0007C58.6545 35.0523 59.0565 35.0979 59.4609 35.1651L63.7929 61.2219C55.3251 58.3943 46.1679 58.3943 37.7001 61.2219V46.2003C37.7001 45.5375 37.1628 45.0003 36.5001 45.0003C35.8373 45.0003 35.3001 45.5375 35.3001 46.2003V61.2267C26.8332 58.3965 17.6762 58.3931 9.20726 61.2171L13.5381 35.1591ZM3.68126 66.1587C3.45452 65.8848 3.36209 65.5238 3.42926 65.1747L8.68406 38.1963H10.6041L6.83846 60.8271C6.70602 61.6508 7.00932 62.4844 7.64014 63.0304C8.27097 63.5764 9.13944 63.757 9.93566 63.5079C16.3329 61.4353 23.1482 61.0029 29.7561 62.2503L29.3985 66.6003H4.61606C4.25405 66.6005 3.91098 66.4384 3.68126 66.1587ZM36.5001 69.0003C33.6093 69.0003 31.9509 68.1459 31.7073 67.7655L32.1201 62.7855C33.4396 63.114 34.7308 63.547 35.9817 64.0803C36.1434 64.1582 36.3205 64.1992 36.5001 64.2003C36.6801 64.2 36.8577 64.159 37.0197 64.0803C38.2697 63.5438 39.5606 63.108 40.8801 62.7771L41.2929 67.7643C41.0493 68.1459 39.3909 69.0003 36.5001 69.0003V69.0003ZM69.3189 66.1587C69.0891 66.4384 68.7461 66.6005 68.3841 66.6003H43.6053L43.2453 62.2419C49.8568 60.997 56.6751 61.4332 63.0741 63.5103C63.8701 63.7562 64.7367 63.573 65.3651 63.0259C65.9935 62.4789 66.2944 61.6458 66.1605 60.8235L62.3985 38.1975H64.3185L69.5745 65.1735C69.641 65.5236 69.5472 65.8851 69.3189 66.1587V66.1587Z" fill="#2DC071"/>
<path d="M32.5228 27.822C32.0316 28.2664 31.9935 29.0249 32.4376 29.5164C33.4556 30.6403 34.8009 31.416 36.2836 31.734C35.6121 32.6802 34.5231 33.2417 33.3628 33.24C32.7001 33.24 32.1628 33.7772 32.1628 34.44C32.1628 35.1027 32.7001 35.64 33.3628 35.64C35.847 35.6499 38.076 34.1156 38.9536 31.7916C41.9375 31.2971 44.2998 29.0003 44.878 26.0316C44.9674 25.6069 44.8205 25.1671 44.4939 24.8814C44.1674 24.5957 43.712 24.5085 43.303 24.6534C42.894 24.7983 42.595 25.1528 42.5212 25.5804C42.2859 26.818 41.5718 27.9129 40.534 28.6272C38.5375 29.9718 35.8599 29.6666 34.2172 27.9072C33.7728 27.4159 33.0143 27.3778 32.5228 27.822V27.822Z" fill="#2DC071"/>
<path d="M28.3396 26.5203C29.0024 26.5203 29.5396 25.983 29.5396 25.3203C29.5396 24.4928 29.8684 23.6992 30.4535 23.1141C31.0386 22.529 31.8322 22.2003 32.6596 22.2003C33.3224 22.2003 33.8596 21.663 33.8596 21.0003C33.8596 20.3376 33.3224 19.8003 32.6596 19.8003C29.6124 19.8036 27.143 22.2731 27.1396 25.3203C27.1396 25.6386 27.2661 25.9438 27.4911 26.1688C27.7162 26.3939 28.0214 26.5203 28.3396 26.5203V26.5203Z" fill="#2DC071"/>
<path d="M37.6998 3.0001V1.8001C37.6998 1.13736 37.1625 0.600098 36.4998 0.600098C35.8371 0.600098 35.2998 1.13736 35.2998 1.8001V3.0001C35.2998 3.66284 35.8371 4.2001 36.4998 4.2001C37.1625 4.2001 37.6998 3.66284 37.6998 3.0001Z" fill="#2DC071"/>
<path d="M56.1924 9.2111L54.9924 10.4111C54.6804 10.7124 54.5553 11.1586 54.6651 11.5781C54.7749 11.9977 55.1026 12.3253 55.5221 12.4351C55.9417 12.545 56.3879 12.4198 56.6892 12.1079L57.8892 10.9079C58.2011 10.6066 58.3262 10.1604 58.2164 9.74089C58.1066 9.32134 57.7789 8.99368 57.3594 8.88387C56.9398 8.77405 56.4936 8.89915 56.1924 9.2111Z" fill="#2DC071"/>
<path d="M17.1599 12.4595C17.6452 12.4594 18.0826 12.167 18.2683 11.7187C18.454 11.2703 18.3514 10.7543 18.0083 10.4111L16.8083 9.2111C16.507 8.89915 16.0608 8.77405 15.6413 8.88387C15.2217 8.99368 14.8941 9.32134 14.7843 9.74089C14.6744 10.1604 14.7995 10.6066 15.1115 10.9079L16.3115 12.1079C16.5365 12.333 16.8417 12.4594 17.1599 12.4595Z" fill="#2DC071"/>
<path d="M26.3976 7.41032C26.5553 7.40998 26.7114 7.37901 26.8572 7.31912C27.1514 7.19729 27.385 6.96357 27.5068 6.66942C27.6285 6.37527 27.6284 6.04479 27.5064 5.75072L26.1276 2.42432C25.9697 2.01917 25.6049 1.73117 25.1742 1.67152C24.7434 1.61187 24.3141 1.78992 24.052 2.1369C23.7899 2.48388 23.7361 2.94551 23.9112 3.34352L25.2888 6.66992C25.4747 7.11823 25.9123 7.41044 26.3976 7.41032V7.41032Z" fill="#2DC071"/>
<path d="M48.4403 1.77505C47.8283 1.52185 47.1269 1.81242 46.8731 2.42425L45.4943 5.75065C45.372 6.04485 45.3717 6.37563 45.4935 6.67007C45.6152 6.96451 45.8491 7.19842 46.1435 7.32025C46.2894 7.38014 46.4455 7.41111 46.6031 7.41145C47.0885 7.41157 47.5261 7.11936 47.7119 6.67105L49.0895 3.34465C49.2119 3.05044 49.2122 2.71966 49.0904 2.42523C48.9686 2.13079 48.7348 1.89687 48.4403 1.77505V1.77505Z" fill="#2DC071"/>
<path d="M60.8903 21.6988C61.0481 21.6985 61.2043 21.6671 61.3499 21.6064L64.6751 20.2288C65.0712 20.0648 65.3498 19.7019 65.4059 19.2769C65.4619 18.8518 65.2869 18.4291 64.9469 18.1681C64.6068 17.907 64.1532 17.8472 63.7571 18.0112L60.4307 19.3888C59.8999 19.6068 59.5977 20.1701 59.7097 20.7329C59.8217 21.2958 60.3165 21.7005 60.8903 21.6988Z" fill="#2DC071"/>
<path d="M11.6506 21.6062C12.2629 21.86 12.9651 21.5694 13.219 20.957C13.4728 20.3446 13.1821 19.6424 12.5698 19.3886L9.24335 18.011C8.63098 17.7575 7.92905 18.0484 7.67555 18.6608C7.42205 19.2732 7.71297 19.9751 8.32535 20.2286L11.6506 21.6062Z" fill="#2DC071"/>
</g>
</g>
</g>
<defs>
<clipPath id="clip0_439_56">
<rect width="72" height="72" fill="white" transform="translate(0.5)"/>
</clipPath>
<clipPath id="clip1_439_56">
<rect width="70.9823" height="70.8" fill="white" transform="translate(1.00879 0.600098)"/>
</clipPath>
<clipPath id="clip2_439_56">
<rect width="70.9823" height="70.8" fill="white" transform="translate(1.00879 0.600098)"/>
</clipPath>
</defs>
</svg>
