<svg width="44" height="45" viewBox="0 0 44 45" fill="none" xmlns="http://www.w3.org/2000/svg">
<circle cx="22" cy="22.25" r="20.5" stroke="#F26522" stroke-width="3"/>
<path d="M36.496 7.75402C38.5074 9.76543 39.1312 13.1625 38.0476 17.3766C36.9736 21.5529 34.2713 26.2422 30.132 30.3814C25.9928 34.5207 21.3035 37.223 17.1272 38.297C12.9131 39.3807 9.51602 38.7568 7.50461 36.7454C5.4932 34.734 4.86935 31.3369 5.95298 27.1228C7.02697 22.9465 9.72931 18.2572 13.8686 14.118C18.0078 9.97873 22.6971 7.27639 26.8734 6.20239C31.0875 5.11877 34.4846 5.74262 36.496 7.75402Z" stroke="#F7941D" stroke-width="3"/>
<path d="M7.50402 7.75401C9.51543 5.74261 12.9125 5.11876 17.1266 6.20238C21.3029 7.27638 25.9922 9.97872 30.1314 14.118C34.2707 18.2572 36.973 22.9465 38.047 27.1228C39.1307 31.3369 38.5068 34.734 36.4954 36.7454C34.484 38.7568 31.0869 39.3806 26.8728 38.297C22.6965 37.223 18.0072 34.5207 13.868 30.3814C9.72873 26.2422 7.02639 21.5529 5.95239 17.3766C4.86877 13.1625 5.49262 9.76542 7.50402 7.75401Z" stroke="#F26522" stroke-width="3"/>
</svg>
